<svg xmlns="http://www.w3.org/2000/svg" viewBox="0 0 560 150" width="560" height="150" role="img" aria-label="Dawar Sweets and Snacks">
  <defs>
    <radialGradient id="discG2" cx="50%" cy="36%" r="78%">
      <stop offset="0%" stop-color="#B82428"></stop><stop offset="100%" stop-color="#8A1518"></stop>
    </radialGradient>
  </defs>
  <g transform="translate(8,15)">
    <circle cx="60" cy="60" r="58" fill="#D4A017"></circle>
    <circle cx="60" cy="60" r="54.5" fill="#FFF8EC"></circle>
    <circle cx="60" cy="60" r="52" fill="url(#discG2)"></circle>
    <circle cx="60" cy="60" r="45" fill="none" stroke="#F2C94C" stroke-width="1.2" stroke-opacity="0.55"></circle>
    <g fill="#F2C94C" opacity="0.9"><circle cx="60.00" cy="11.00" r="1.15"></circle><circle cx="72.68" cy="12.67" r="1.15"></circle><circle cx="84.50" cy="17.56" r="1.15"></circle><circle cx="94.65" cy="25.35" r="1.15"></circle><circle cx="102.44" cy="35.50" r="1.15"></circle><circle cx="107.33" cy="47.32" r="1.15"></circle><circle cx="109.00" cy="60.00" r="1.15"></circle><circle cx="107.33" cy="72.68" r="1.15"></circle><circle cx="102.44" cy="84.50" r="1.15"></circle><circle cx="94.65" cy="94.65" r="1.15"></circle><circle cx="84.50" cy="102.44" r="1.15"></circle><circle cx="72.68" cy="107.33" r="1.15"></circle><circle cx="60.00" cy="109.00" r="1.15"></circle><circle cx="47.32" cy="107.33" r="1.15"></circle><circle cx="35.50" cy="102.44" r="1.15"></circle><circle cx="25.35" cy="94.65" r="1.15"></circle><circle cx="17.56" cy="84.50" r="1.15"></circle><circle cx="12.67" cy="72.68" r="1.15"></circle><circle cx="11.00" cy="60.00" r="1.15"></circle><circle cx="12.67" cy="47.32" r="1.15"></circle><circle cx="17.56" cy="35.50" r="1.15"></circle><circle cx="25.35" cy="25.35" r="1.15"></circle><circle cx="35.50" cy="17.56" r="1.15"></circle><circle cx="47.32" cy="12.67" r="1.15"></circle></g>
    <text x="60" y="52" text-anchor="middle" dominant-baseline="central" font-family="Georgia,serif" font-weight="700" font-size="38" letter-spacing="0.5" fill="#FFF8EC">DSS</text>
    <rect x="40" y="76" width="40" height="1.3" fill="#F2C94C" opacity="0.8"></rect>
    <text x="60" y="88" text-anchor="middle" dominant-baseline="central" font-family="Georgia,serif" font-weight="700" letter-spacing="1.2" font-size="8" fill="#F2C94C">EST. 1958</text>
  </g>
  <g transform="translate(150,0)">
    <text x="0" y="62" font-family="Georgia,&#39;Times New Roman&#39;,serif" font-weight="700" font-size="54" fill="#2D1B0E">Dawar</text>
    <g>
      <line x1="2" y1="86" x2="34" y2="86" stroke="#D4A017" stroke-width="2"></line>
      <text x="42" y="92" font-family="&#39;Trebuchet MS&#39;,Helvetica,Arial,sans-serif" font-weight="700" letter-spacing="4" font-size="18" fill="#A31E22">SWEETS &amp; SNACKS</text>
    </g>
    <text x="2" y="120" font-family="&#39;Trebuchet MS&#39;,Helvetica,Arial,sans-serif" font-weight="600" letter-spacing="2.5" font-size="12.5" fill="#5A3E26">PANIPAT · SINCE 1958</text>
  </g>
</svg>