<svg xmlns="http://www.w3.org/2000/svg" viewBox="0 0 120 120" width="120" height="120">
  <circle cx="60" cy="60" r="56" fill="#2D1B0E"></circle>
  <circle cx="60" cy="60" r="52" fill="none" stroke="#D4A017" stroke-width="1.5"></circle>
  <path d="M63.0 58.0 L63.1 58.4 L63.2 58.8 L63.3 59.3 L63.2 59.7 L63.2 60.2 L63.0 60.7 L62.8 61.1 L62.4 61.6 L62.1 62.0 L61.6 62.4 L61.1 62.7 L60.6 63.0 L59.9 63.2 L59.3 63.3 L58.6 63.4 L57.9 63.3 L57.2 63.2 L56.5 62.9 L55.8 62.6 L55.2 62.1 L54.5 61.6 L54.0 61.0 L53.5 60.3 L53.1 59.5 L52.8 58.7 L52.6 57.8 L52.5 56.9 L52.5 56.0 L52.7 55.0 L53.0 54.1 L53.4 53.1 L53.9 52.2 L54.5 51.4 L55.3 50.7 L56.1 50.0 L57.1 49.4 L58.1 49.0 L59.2 48.6 L60.3 48.4 L61.5 48.4 L62.7 48.5 L63.9 48.7 L65.1 49.1 L66.3 49.7 L67.3 50.4 L68.3 51.2 L69.3 52.2 L70.0 53.3 L70.7 54.5 L71.2 55.8 L71.6 57.1 L71.8 58.6 L71.8 60.0 L71.6 61.5 L71.3 62.9 L70.7 64.3 L70.0 65.7 L69.1 67.0 L68.1 68.1 L66.9 69.2 L65.5 70.1 L64.1 70.8 L62.5 71.4 L60.9 71.8 L59.2 71.9 L57.5 71.9 L55.7 71.7 L54.0 71.2 L52.4 70.5 L50.8 69.6 L49.4 68.6 L48.0 67.3 L46.8 65.8 L45.8 64.3 L45.0 62.5 L44.4 60.7 L44.0 58.8 L43.9 56.9 L44.0 54.9 L44.3 52.9 L44.9 51.0 L45.7 49.1 L46.8 47.3 L48.0 45.7 L49.5 44.2 L51.2 42.9 L53.0 41.7 L55.0 40.9 L57.1 40.2 L59.3 39.8 L61.5 39.7 L63.8 39.9 L66.0 40.3 L68.2 41.0 L70.3 42.0 L72.2 43.2 L74.1 44.7 L75.7 46.4 L77.2 48.3 L78.4 50.4 L79.3 52.6 L80.0 55.0 L80.4 57.4 L80.5 59.9 L80.2 62.4 L79.7 64.9 L78.9 67.3 L77.7 69.7 L76.3 71.8 L74.6 73.8 L72.7 75.6 L70.6 77.2 L68.2 78.5 L65.7 79.5 L63.1 80.2 L60.4 80.6 L57.6 80.6 L54.8 80.3 L52.1 79.7 L49.4 78.7 L46.9 77.4 L44.5 75.8 L42.4 73.9 L40.4 71.8 L38.8 69.4 L37.4 66.8 L36.3 64.0 L35.6 61.1 L35.2 58.1 L35.2 55.1 L35.6 52.0 L36.4 49.1 L37.5 46.2 L38.9 43.4 L40.7 40.9 L42.8 38.5 L45.2 36.5 L47.9 34.7 L50.7 33.2 L53.8 32.1 L57.0 31.4 L60.2 31.0 L63.5 31.1 L66.8 31.6 L70.0 32.4 L73.1 33.7 L76.1 35.3 L78.8 37.3 L81.3 39.6 L83.5 42.3 L85.4 45.2 L87.0 48.3 L88.1 51.6 L88.8 55.0 L89.2 58.6 L89.0 62.1 L88.5 65.7 L87.5 69.1 L86.1 72.5 L84.3 75.6" fill="none" stroke="#F2C94C" stroke-width="4.2" stroke-linecap="round"></path>
  <text x="60" y="95" text-anchor="middle" font-family="Georgia,serif" font-weight="700" font-size="8" letter-spacing="2" fill="#F2C94C">EST. 1958</text>
</svg>